<svg width="353" height="74" viewBox="0 0 353 74" fill="none" xmlns="http://www.w3.org/2000/svg">
<path d="M351.938 5.43574C352.212 5.47007 352.462 5.27578 352.496 5.00178C352.53 4.72778 352.336 4.47783 352.062 4.4435L351.938 5.43574ZM0.924391 69.829C42.5597 76.1982 72.168 73.7018 96.4609 66.7682C120.741 59.8385 139.687 48.4803 159.957 37.1981C180.234 25.9123 201.872 14.6794 231.609 7.91042C261.347 1.141 299.214 -1.16982 351.938 5.43574L352.062 4.4435C299.25 -2.1731 261.263 0.134602 231.387 6.93536C201.509 13.7365 179.771 25.0255 159.471 36.3243C139.164 47.6265 120.331 58.9156 96.1865 65.8066C72.0554 72.694 42.5951 75.192 1.07561 68.8405L0.924391 69.829Z" fill="#1A202C"/>
</svg>
